<mxfile host="app.diagrams.net" agent="Mozilla/5.0 (Windows NT 10.0; Win64; x64) AppleWebKit/537.36 (KHTML, like Gecko) Chrome/133.0.0.0 Safari/537.36" version="26.0.13">
  <diagram name="Page-1" id="dKGNPrQp20S2oc_OehTf">
    <mxGraphModel dx="1674" dy="762" grid="1" gridSize="10" guides="1" tooltips="1" connect="1" arrows="1" fold="1" page="1" pageScale="1" pageWidth="850" pageHeight="1100" math="0" shadow="0">
      <root>
        <mxCell id="0" />
        <mxCell id="1" parent="0" />
        <mxCell id="X8hCXNgWhETL42D7RwJg-40" style="edgeStyle=orthogonalEdgeStyle;rounded=0;orthogonalLoop=1;jettySize=auto;html=1;entryX=0.5;entryY=1;entryDx=0;entryDy=0;" parent="1" source="X8hCXNgWhETL42D7RwJg-11" target="X8hCXNgWhETL42D7RwJg-16" edge="1">
          <mxGeometry relative="1" as="geometry" />
        </mxCell>
        <mxCell id="X8hCXNgWhETL42D7RwJg-11" value="RÃ©servoir central" style="whiteSpace=wrap;html=1;aspect=fixed;" parent="1" vertex="1">
          <mxGeometry x="205" y="590" width="80" height="80" as="geometry" />
        </mxCell>
        <mxCell id="X8hCXNgWhETL42D7RwJg-26" value="" style="group" parent="1" vertex="1" connectable="0">
          <mxGeometry x="215" y="489.99999999999994" width="60" height="60" as="geometry" />
        </mxCell>
        <mxCell id="X8hCXNgWhETL42D7RwJg-16" value="" style="ellipse;whiteSpace=wrap;html=1;aspect=fixed;" parent="X8hCXNgWhETL42D7RwJg-26" vertex="1">
          <mxGeometry width="60" height="60" as="geometry" />
        </mxCell>
        <mxCell id="X8hCXNgWhETL42D7RwJg-18" value="" style="ellipse;whiteSpace=wrap;html=1;aspect=fixed;" parent="X8hCXNgWhETL42D7RwJg-26" vertex="1">
          <mxGeometry x="15" y="15" width="30" height="30" as="geometry" />
        </mxCell>
        <mxCell id="X8hCXNgWhETL42D7RwJg-19" value="" style="ellipse;whiteSpace=wrap;html=1;aspect=fixed;" parent="X8hCXNgWhETL42D7RwJg-26" vertex="1">
          <mxGeometry x="25" y="10" width="10" height="10" as="geometry" />
        </mxCell>
        <mxCell id="X8hCXNgWhETL42D7RwJg-20" value="" style="ellipse;whiteSpace=wrap;html=1;aspect=fixed;" parent="X8hCXNgWhETL42D7RwJg-26" vertex="1">
          <mxGeometry x="10" y="25" width="10" height="10" as="geometry" />
        </mxCell>
        <mxCell id="X8hCXNgWhETL42D7RwJg-21" value="" style="ellipse;whiteSpace=wrap;html=1;aspect=fixed;" parent="X8hCXNgWhETL42D7RwJg-26" vertex="1">
          <mxGeometry x="39" y="24" width="10" height="10" as="geometry" />
        </mxCell>
        <mxCell id="X8hCXNgWhETL42D7RwJg-23" value="" style="ellipse;whiteSpace=wrap;html=1;aspect=fixed;" parent="X8hCXNgWhETL42D7RwJg-26" vertex="1">
          <mxGeometry x="26" y="39" width="10" height="10" as="geometry" />
        </mxCell>
        <mxCell id="X8hCXNgWhETL42D7RwJg-27" value="Peristaltic Pump" style="text;html=1;align=center;verticalAlign=middle;resizable=0;points=[];autosize=1;strokeColor=none;fillColor=none;" parent="1" vertex="1">
          <mxGeometry x="190" y="470" width="110" height="30" as="geometry" />
        </mxCell>
        <mxCell id="X8hCXNgWhETL42D7RwJg-28" value="Encolleuse" style="whiteSpace=wrap;html=1;aspect=fixed;" parent="1" vertex="1">
          <mxGeometry x="520" y="480" width="80" height="80" as="geometry" />
        </mxCell>
        <mxCell id="X8hCXNgWhETL42D7RwJg-39" style="edgeStyle=orthogonalEdgeStyle;rounded=0;orthogonalLoop=1;jettySize=auto;html=1;entryX=1;entryY=0.5;entryDx=0;entryDy=0;" parent="1" source="X8hCXNgWhETL42D7RwJg-34" target="X8hCXNgWhETL42D7RwJg-38" edge="1">
          <mxGeometry relative="1" as="geometry" />
        </mxCell>
        <mxCell id="X8hCXNgWhETL42D7RwJg-46" style="edgeStyle=orthogonalEdgeStyle;rounded=0;orthogonalLoop=1;jettySize=auto;html=1;entryX=0.5;entryY=1;entryDx=0;entryDy=0;" parent="1" source="X8hCXNgWhETL42D7RwJg-34" target="X8hCXNgWhETL42D7RwJg-28" edge="1">
          <mxGeometry relative="1" as="geometry" />
        </mxCell>
        <mxCell id="X8hCXNgWhETL42D7RwJg-34" value="raspberry pi" style="whiteSpace=wrap;html=1;aspect=fixed;" parent="1" vertex="1">
          <mxGeometry x="520" y="590" width="80" height="80" as="geometry" />
        </mxCell>
        <mxCell id="cMOBOkx_437ZodWoVgSr-1" style="edgeStyle=orthogonalEdgeStyle;rounded=0;orthogonalLoop=1;jettySize=auto;html=1;entryX=0.5;entryY=1;entryDx=0;entryDy=0;" parent="1" source="X8hCXNgWhETL42D7RwJg-38" target="X8hCXNgWhETL42D7RwJg-41" edge="1">
          <mxGeometry relative="1" as="geometry" />
        </mxCell>
        <mxCell id="cMOBOkx_437ZodWoVgSr-3" style="edgeStyle=orthogonalEdgeStyle;rounded=0;orthogonalLoop=1;jettySize=auto;html=1;" parent="1" source="X8hCXNgWhETL42D7RwJg-38" target="X8hCXNgWhETL42D7RwJg-11" edge="1">
          <mxGeometry relative="1" as="geometry" />
        </mxCell>
        <mxCell id="X8hCXNgWhETL42D7RwJg-38" value="Capteur de niveau pour colle" style="whiteSpace=wrap;html=1;aspect=fixed;" parent="1" vertex="1">
          <mxGeometry x="354.99999999999994" y="590" width="80" height="80" as="geometry" />
        </mxCell>
        <mxCell id="X8hCXNgWhETL42D7RwJg-43" style="edgeStyle=orthogonalEdgeStyle;rounded=0;orthogonalLoop=1;jettySize=auto;html=1;entryX=0;entryY=0.5;entryDx=0;entryDy=0;" parent="1" source="X8hCXNgWhETL42D7RwJg-41" target="X8hCXNgWhETL42D7RwJg-28" edge="1">
          <mxGeometry relative="1" as="geometry" />
        </mxCell>
        <mxCell id="X8hCXNgWhETL42D7RwJg-41" value="Serigue" style="rounded=1;whiteSpace=wrap;html=1;" parent="1" vertex="1">
          <mxGeometry x="335" y="510" width="120" height="20" as="geometry" />
        </mxCell>
        <mxCell id="X8hCXNgWhETL42D7RwJg-42" style="edgeStyle=orthogonalEdgeStyle;rounded=0;orthogonalLoop=1;jettySize=auto;html=1;entryX=0;entryY=0.5;entryDx=0;entryDy=0;" parent="1" source="X8hCXNgWhETL42D7RwJg-16" target="X8hCXNgWhETL42D7RwJg-41" edge="1">
          <mxGeometry relative="1" as="geometry" />
        </mxCell>
        <mxCell id="mcXInol9gUDdHg6yn5vd-3" value="" style="shape=flexArrow;endArrow=classic;html=1;rounded=0;fontSize=12;startSize=8;endSize=8;curved=1;" parent="1" edge="1">
          <mxGeometry width="50" height="50" relative="1" as="geometry">
            <mxPoint x="305" y="480" as="sourcePoint" />
            <mxPoint x="485" y="510" as="targetPoint" />
          </mxGeometry>
        </mxCell>
      </root>
    </mxGraphModel>
  </diagram>
</mxfile>
